<svg xmlns="http://www.w3.org/2000/svg" xmlns:xlink="http://www.w3.org/1999/xlink" width="343.188" height="58.246" viewBox="0 0 343.188 58.246">
  <defs>
    <linearGradient id="linear-gradient" x1="0.5" x2="0.5" y2="1" gradientUnits="objectBoundingBox">
      <stop offset="0" stop-color="#008dd1"/>
      <stop offset="1" stop-color="#0057a6"/>
    </linearGradient>
    <linearGradient id="linear-gradient-4" x1="0.5" y1="0" x2="0.5" y2="1" xlink:href="#linear-gradient"/>
  </defs>
  <g id="Group_105" data-name="Group 105" transform="translate(-277.191 -348.029)">
    <g id="Group_86" data-name="Group 86" transform="translate(277.191 348.03)">
      <path id="Path_58" data-name="Path 58" d="M288.718,396.05a13.357,13.357,0,0,1-.21-1.915,10.835,10.835,0,0,1,.1-1.926,6.971,6.971,0,0,1,.8-2.341,13.361,13.361,0,0,1,1.407-2.032c.115-.145.232-.284.347-.426.011-.011.008-.033.025-.1a3.306,3.306,0,0,1-2.86-2.087,1.427,1.427,0,0,0-1.082-.88,3.844,3.844,0,0,0-.486-.082c-.281-.035-.568-.022-.849-.066a1.215,1.215,0,0,1-1.046-.814,1.491,1.491,0,0,1-.074-.494c0-.265-.016-.442-.336-.494a2.786,2.786,0,0,1-1.207-.475,2.179,2.179,0,0,1-.765-.986,3.342,3.342,0,0,1-.254-1.445v-.014a3.883,3.883,0,0,1,.063-.541c.2-1.114.494-2.213.729-3.319.2-.929.366-1.863.552-2.794a3.712,3.712,0,0,1,1.672-2.292,1.9,1.9,0,0,0,.8-1.213,1.731,1.731,0,0,1,1.426-1.543,2.694,2.694,0,0,1,.836.008c.232.035.462.09.694.117a5.775,5.775,0,0,0,.808.038,3.871,3.871,0,0,0,2.24-.729c1-.727,2.024-1.42,3.021-2.152a.716.716,0,0,0,.2-.508c.016-.718-.033-1.437-.008-2.155a4.126,4.126,0,0,1,.2-1.147,3.063,3.063,0,0,1,2.349-2.019A4.927,4.927,0,0,0,300,357.962a.627.627,0,0,0,.128-.2.274.274,0,0,0,.019-.2,2.325,2.325,0,0,1-.309-1.246,2.634,2.634,0,0,1,.158-.776,5.362,5.362,0,0,1,.6-1.112c.074-.112.153-.219.268-.383.175.191.361.372.544.555a3.857,3.857,0,0,1,1.243,1.978c1-.213,2.029-.418,3.048-.656a15.409,15.409,0,0,1,2.253-.347,17.268,17.268,0,0,1,6.646.838,7.727,7.727,0,0,1,1.718.809,8.3,8.3,0,0,1,1.281.942,9.135,9.135,0,0,1,.814.844c.481.565.961,1.134,1.434,1.7.951,1.139,1.882,2.292,2.781,3.466q.672.881,1.317,1.784c.858,1.2,1.669,2.437,2.42,3.712a38.3,38.3,0,0,1,2.038,3.972c.686,1.56,1.306,3.147,1.975,4.712a1.821,1.821,0,0,0,.481.666,50.2,50.2,0,0,1,5.709,5.564,29.889,29.889,0,0,0-4.354-23.286A30.278,30.278,0,0,0,316.2,349.388a30.13,30.13,0,0,0-32.2,9.62q-.91,1.1-1.713,2.289a30.019,30.019,0,0,0,8.957,42.144,32.075,32.075,0,0,1-1.461-3.436A25.4,25.4,0,0,1,288.718,396.05Z" transform="translate(-277.191 -348.03)" fill="url(#linear-gradient)"/>
      <g id="Group_85" data-name="Group 85" transform="translate(5.034 6.012)">
        <path id="Path_59" data-name="Path 59" d="M281.956,356.993l-.022.128s.568,3.363,6.138,1.281a1.435,1.435,0,0,1-.527-1.256,4.3,4.3,0,0,1-3.57,1.041A2.672,2.672,0,0,1,281.956,356.993Z" transform="translate(-274.013 -338.522)" fill="#323232"/>
        <path id="Path_60" data-name="Path 60" d="M282.208,355.664l.012,0,0,0Z" transform="translate(-273.538 -340.828)" fill="#323232"/>
        <path id="Path_61" data-name="Path 61" d="M284.174,358.319a1.356,1.356,0,0,0,.167-1.622,1,1,0,0,0-1.262-.421c-.385.134-.707.352-.65.852l.773-.109a.821.821,0,0,0,.369,1.158l-.478.109A.721.721,0,0,0,284.174,358.319Z" transform="translate(-273.168 -339.89)" fill="#323232"/>
        <path id="Path_62" data-name="Path 62" d="M287.528,355.415a3.686,3.686,0,0,1-2.794.306,6.253,6.253,0,0,0-1.8-.033,3.358,3.358,0,0,1,2.5,1.543l2.51-2C287.8,355.3,287.659,355.352,287.528,355.415Z" transform="translate(-272.278 -341.572)" fill="#323232"/>
        <path id="Path_63" data-name="Path 63" d="M327.66,375.208a1.821,1.821,0,0,1-.481-.666c-.669-1.565-1.289-3.152-1.975-4.712a38.3,38.3,0,0,0-2.038-3.972c-.751-1.276-1.562-2.51-2.42-3.712q-.643-.9-1.317-1.784c-.9-1.175-1.83-2.327-2.781-3.466-.473-.568-.953-1.136-1.434-1.7a9.138,9.138,0,0,0-.814-.844,8.3,8.3,0,0,0-1.281-.942,7.722,7.722,0,0,0-1.718-.809,17.268,17.268,0,0,0-6.646-.839,15.413,15.413,0,0,0-2.253.347c-1.019.238-2.046.442-3.048.656a3.858,3.858,0,0,0-1.243-1.978c-.183-.183-.369-.363-.544-.555-.115.164-.194.27-.268.382a5.363,5.363,0,0,0-.6,1.112,2.631,2.631,0,0,0-.159.776,2.325,2.325,0,0,0,.309,1.246.273.273,0,0,1-.019.2.625.625,0,0,1-.128.2,4.927,4.927,0,0,1-2.188,1.262,3.063,3.063,0,0,0-2.349,2.019,4.127,4.127,0,0,0-.2,1.147c-.025.718.025,1.437.008,2.155a.716.716,0,0,1-.2.508c-1,.732-2.021,1.426-3.021,2.152a3.871,3.871,0,0,1-2.24.729,5.794,5.794,0,0,1-.808-.038c-.232-.027-.462-.082-.694-.117a2.709,2.709,0,0,0-.839-.008,1.731,1.731,0,0,0-1.423,1.543,1.9,1.9,0,0,1-.8,1.213,3.712,3.712,0,0,0-1.672,2.292c-.186.931-.355,1.865-.552,2.794-.235,1.106-.53,2.2-.729,3.319a3.889,3.889,0,0,0-.063.541v.014a3.341,3.341,0,0,0,.254,1.445,2.363,2.363,0,0,0,.352.6,2.3,2.3,0,0,0,.41.388,2.811,2.811,0,0,0,1.21.475c.32.052.336.23.336.495a1.489,1.489,0,0,0,.074.494,1.215,1.215,0,0,0,1.046.814c.281.044.568.03.849.066a3.852,3.852,0,0,1,.486.082,1.427,1.427,0,0,1,1.082.88A3.306,3.306,0,0,0,288,383.5c-.016.068-.014.09-.025.1-.115.142-.232.281-.347.426a13.357,13.357,0,0,0-1.407,2.032,6.972,6.972,0,0,0-.8,2.341,10.839,10.839,0,0,0-.1,1.926,13.367,13.367,0,0,0,.21,1.915,25.4,25.4,0,0,0,1.06,3.955,32.056,32.056,0,0,0,1.461,3.436,30,30,0,0,0,3.218,1.759,39.614,39.614,0,0,1,1.3-4.25,10.964,10.964,0,0,1,1.215-2.292,4.3,4.3,0,0,1,4.108-2.01,27.623,27.623,0,0,1,10.926,3.027,10.362,10.362,0,0,1,5.427,6.6,29.763,29.763,0,0,0,3.835-1.672.423.423,0,0,1-.025-.063c-.443-2.221.186-5.974,2.879-7.574,1.612-.962,3.365-1.691,5.061-2.507.445-.213.921-.363,1.445-.565-.4-.227-.743-.418-1.087-.617a33.13,33.13,0,0,1-4.933-3.51,6.137,6.137,0,0,1-1.909-6.755c.134-.511.331-1.008.508-1.543l-.415.3a12.617,12.617,0,0,0,.934-5.19c-.011-.748-.128-1.5-.139-2.248-.011-.615.066-1.229.107-1.846.022-.328.046-.658.076-1.071a1.259,1.259,0,0,1-1.6-.806,34.589,34.589,0,0,1,.366,3.57,9.259,9.259,0,0,1-1.366,4.354,14.428,14.428,0,0,1-6.534,6.006,3.115,3.115,0,0,1-3.111-.172c-.347-.2-.685-.415-1.035-.609a.609.609,0,0,1-.366-.8.675.675,0,0,1,.721-.546.3.3,0,0,1,.049,0c1.046.172,1.584-.481,1.953-1.287a2.324,2.324,0,0,0-.4-2.2,8.136,8.136,0,0,0-.975.287.843.843,0,0,0-.344.371c-.615,1.128-1.175,2.286-1.838,3.382a6.836,6.836,0,0,1-7.5,3,30.281,30.281,0,0,0-6.242-.128,36.163,36.163,0,0,1-4.034.317,2.68,2.68,0,0,1-2.458-2.038c1.093-.716,7.607.292,7.607.292a11.461,11.461,0,0,0,8.282-1.778c-5.739,2.655-12.641-1.041-18.6.478a.468.468,0,0,1-.249-.9c4.84-1.235,10.478,1.06,15.43.442a14.459,14.459,0,0,0,5.089-2.079,2.091,2.091,0,0,0,1.013-1.855,14.485,14.485,0,0,0-.055-2.152,4.949,4.949,0,0,0-4.944-3.813s3.346,2.016,3.614,3.857c.92,3.587-5.217,4.4-5.217,4.4a16.547,16.547,0,0,1-8.028-.645,16.647,16.647,0,0,0-7.5.505s-1.505.56-1.694-.8c-.134-.964.178-3.272,1.246-6.493l-.016-.035h.027c.036-.1.063-.2.1-.3a4.209,4.209,0,0,0,1.1.172,4.4,4.4,0,0,0,2.45-2.2l-1.328.934.1-.175a1.609,1.609,0,0,1-2.174.38c-.432-.306-.421-.707.055-1.054.109-.082.224-.153.339-.229,0,.035-.022.068-.011.1a1.815,1.815,0,0,0,1.511-.423c.178-.24.218-1.106-.219-1.155.148-.825.541-1.161,1.494-1.166.634,0,1.27.049,1.9.019a4.827,4.827,0,0,0,2.74-.97c2.215-1.666,4.422-3.349,6.629-5.026.025-.019.03-.057.049-.1-.478-.022-.951-.016-1.418-.074a1.678,1.678,0,0,1-1.407-.836c-.344-.656-.077-1.139.615-1.368a5.474,5.474,0,0,0,1.792-.847c3.043-2.51,6.621-2.925,10.352-2.712a21.265,21.265,0,0,1,3.122.462,4.511,4.511,0,0,0-2.371,1.251,3.326,3.326,0,0,0-.5.948c-.044.246.2.544.317.817.2-.159.415-.311.612-.478a.41.41,0,0,0,.085-.18c.284-.885,1.016-1.311,1.794-1.814a8.908,8.908,0,0,0,.186.888.61.61,0,0,1-.309.762,1.745,1.745,0,0,1-.489.136,2.949,2.949,0,0,1-.09-.549,1.819,1.819,0,0,1,.131-.443,3.906,3.906,0,0,0-1.439,2.215l.382.137-.281.915.713-.352c.47-.167.833-.287,1.188-.418a1.189,1.189,0,0,0,.822-1.2,6.217,6.217,0,0,0-.661-2.622c.128.027.259.046.388.076a6.384,6.384,0,0,1,3.226,1.926,17.43,17.43,0,0,1,2.013,2.3c1.281,1.918,3.046,3.431,4.31,5.365a58.681,58.681,0,0,1,5.815,11.011c.063.169.117.339.183.527l-1.39.437c2.936,1.207,4.969,3.532,7.1,5.706.555.568,1.079,1.161,1.587,1.765.139-.5.276-1,.388-1.511A50.2,50.2,0,0,0,327.66,375.208ZM300.954,387.56c3.417.385,6.766.235,9.683-1.9,1.2-.877,2.3-1.882,3.447-2.819a1.623,1.623,0,0,1,.587-.341,5.927,5.927,0,0,0,3.57-2.327,1.654,1.654,0,0,1,.213-.156,4.778,4.778,0,0,1-.382,1.074,2.705,2.705,0,0,0-.4,1.418,17.6,17.6,0,0,1-1.907,7.96c-.016.03-.033.06-.046.09-.926,2.24-2.726,3.024-5,3a20.479,20.479,0,0,1-4.977-.825l-9.14-2.434c-1.063-.445-1.155-.672-.68-1.691.492-1.057.994-2.109,1.527-3.237C298.111,387,299.5,387.4,300.954,387.56ZM288.428,385.1c1.42-1.726,1.39-1.825,3.6-1.887,1.573-.044,3.155.15,4.84.246-.142.33-.213.511-.3.686-.8,1.707-1.606,3.412-2.39,5.127a.484.484,0,0,1-.642.328,4.737,4.737,0,0,0-3.147.467,2.786,2.786,0,0,1,.647.087,4.225,4.225,0,0,1,1.267.609,1.641,1.641,0,0,1,.4,2.035c-.94,2.456-1.7,4.985-2.524,7.487-.03.09-.057.183-.087.276l-.158.052c-.541-1.177-1.112-2.344-1.612-3.54a21.843,21.843,0,0,1-1.688-6.31A7.45,7.45,0,0,1,288.428,385.1Z" transform="translate(-279.034 -350.231)" fill="#323232"/>
        <path id="Path_64" data-name="Path 64" d="M286.72,355.35a5.357,5.357,0,0,1,1.161-.844,1.033,1.033,0,0,0,.983,1.027c1.316.019,1.3-1.524,1.3-1.524a5.119,5.119,0,0,1,.735-.131C288.146,352.561,286.72,355.35,286.72,355.35Z" transform="translate(-265.726 -344.528)" fill="#323232"/>
      </g>
    </g>
    <g id="Group_87" data-name="Group 87" transform="translate(355.171 358.645)">
      <path id="Path_65" data-name="Path 65" d="M324.159,362.484h-6.113A4.13,4.13,0,0,0,313.8,359.7c-3.33,0-5.337,2.6-5.337,6.433,0,3.606,2.008,6.479,5.52,6.479a4.407,4.407,0,0,0,4.332-3.01h6.252c-1.232,4.469-4.564,8.257-10.675,8.257a11.309,11.309,0,0,1-11.68-11.773c0-6.386,4.425-11.587,11.633-11.587A10.077,10.077,0,0,1,324.159,362.484Z" transform="translate(-302.217 -344.235)" fill="url(#linear-gradient)"/>
      <path id="Path_66" data-name="Path 66" d="M326.47,360.464a15.843,15.843,0,0,0-2.92-.276c-3.649,0-5.474,2.284-5.474,6.206v10.631h-6.157V355.173h6.02v3.373h.137a7.441,7.441,0,0,1,6.389-4.013,8.36,8.36,0,0,1,2,.18Z" transform="translate(-285.418 -344.176)" fill="url(#linear-gradient)"/>
      <path id="Path_67" data-name="Path 67" d="M338.955,376.62h-6.113v-2.74h-.137a7.3,7.3,0,0,1-6.386,3.469c-3.559,0-7.938-2.191-7.938-9.626V354.768h6.157v12.18c0,3.193,1.508,4.928,3.879,4.928,2.691,0,4.379-1.871,4.379-5.52V354.768h6.16Z" transform="translate(-274.229 -343.771)" fill="url(#linear-gradient-4)"/>
      <path id="Path_68" data-name="Path 68" d="M327.982,355.2h6.067v2.734h.183a7.347,7.347,0,0,1,6.476-3.42c4.928,0,8.35,3.283,8.35,9.992v12.546H342.9V364.919c0-3.286-1.551-4.971-4.105-4.971-2.691,0-4.655,1.915-4.655,5.564v11.543h-6.157Z" transform="translate(-257.605 -344.206)" fill="url(#linear-gradient)"/>
      <path id="Path_69" data-name="Path 69" d="M359.094,362.484h-6.113a4.136,4.136,0,0,0-4.245-2.783c-3.33,0-5.337,2.6-5.337,6.433,0,3.606,2.008,6.479,5.52,6.479a4.41,4.41,0,0,0,4.335-3.01h6.25c-1.232,4.469-4.564,8.257-10.677,8.257a11.308,11.308,0,0,1-11.677-11.773c0-6.386,4.425-11.587,11.633-11.587A10.083,10.083,0,0,1,359.094,362.484Z" transform="translate(-241.732 -344.235)" fill="url(#linear-gradient)"/>
      <path id="Path_70" data-name="Path 70" d="M346.85,350.742h6.162v13.731h.18a7.324,7.324,0,0,1,6.433-3.42c4.881,0,8.3,3.24,8.3,9.992v12.546H361.77V371.409c0-3.24-1.552-4.925-4.106-4.925-2.693,0-4.652,1.868-4.652,5.564v11.543H346.85Z" transform="translate(-224.935 -350.742)" fill="url(#linear-gradient)"/>
      <path id="Path_71" data-name="Path 71" d="M365.047,387.341h-5.84l4.015-10.9-7.941-21.669h6.389l3.149,9.489a46.716,46.716,0,0,1,1.459,5.381h.183a46.181,46.181,0,0,1,1.415-5.381l3.056-9.489H377Z" transform="translate(-210.335 -343.771)" fill="url(#linear-gradient)"/>
      <path id="Path_72" data-name="Path 72" d="M388.378,383.591h-3.6v-2.92h-.09a10.381,10.381,0,0,1-8.167,3.7c-5.933,0-11.041-4.608-11.041-11.726,0-6.616,4.7-11.633,11.041-11.633a9.734,9.734,0,0,1,8.167,3.832h.09v-14.1h3.6Zm-11.224-2.42a8.054,8.054,0,0,0,7.94-8.394c0-5.2-3.469-8.621-7.848-8.621-5.337,0-8.028,4.242-8.028,8.484C369.219,376.839,371.91,381.171,377.154,381.171Z" transform="translate(-192.682 -350.742)" fill="#323232"/>
      <path id="Path_73" data-name="Path 73" d="M398.513,377.084h-3.6v-2.92h-.09a10.27,10.27,0,0,1-7.984,3.7c-5.93,0-11.224-4.608-11.224-11.726a11.222,11.222,0,0,1,11.45-11.633,9.779,9.779,0,0,1,7.8,3.879h.047v-3.147h3.6Zm-11.175-2.42a8.131,8.131,0,0,0,7.891-8.394c0-5.2-3.513-8.621-7.8-8.621-5.474,0-8.074,4.286-8.074,8.484S381.954,374.664,387.338,374.664Z" transform="translate(-175.133 -344.235)" fill="#323232"/>
      <path id="Path_74" data-name="Path 74" d="M385.43,359.194h2.876v-6.982h3.6v6.982h5.84v3.01h-5.84v11.541c0,3.559,1.1,4.518,3.422,4.518a9.936,9.936,0,0,0,2.644-.366v2.966a10.774,10.774,0,0,1-3.373.456c-5.294,0-6.3-3.559-6.3-7.711V362.2H385.43Z" transform="translate(-158.133 -348.197)" fill="#323232"/>
      <path id="Path_75" data-name="Path 75" d="M413.828,377.084h-3.605v-2.92h-.09a10.265,10.265,0,0,1-7.984,3.7c-5.93,0-11.224-4.608-11.224-11.726A11.223,11.223,0,0,1,402.377,354.5a9.78,9.78,0,0,1,7.8,3.879h.044v-3.147h3.605Zm-11.177-2.42a8.131,8.131,0,0,0,7.891-8.394c0-5.2-3.513-8.621-7.8-8.621-5.474,0-8.074,4.286-8.074,8.484S397.267,374.664,402.65,374.664Z" transform="translate(-148.62 -344.235)" fill="#323232"/>
    </g>
  </g>
</svg>
